<?xml version="1.0" standalone="no"?>
<!DOCTYPE svg PUBLIC "-//W3C//DTD SVG 20010904//EN"
 "http://www.w3.org/TR/2001/REC-SVG-20010904/DTD/svg10.dtd">
<svg version="1.0" xmlns="http://www.w3.org/2000/svg"
 width="400.000000pt" height="400.000000pt" viewBox="0 0 400.000000 400.000000"
 preserveAspectRatio="xMidYMid meet">

<g transform="translate(0.000000,400.000000) scale(0.100000,-0.100000)"
fill="#000000" stroke="none">
<path d="M0 2000 l0 -2000 2000 0 2000 0 0 2000 0 2000 -2000 0 -2000 0 0
-2000z m1430 285 c0 -228 1 -235 20 -235 19 0 20 7 20 235 l0 235 290 0 290 0
0 -235 c0 -228 1 -235 20 -235 19 0 20 7 20 235 l0 235 290 0 290 0 0 -277 c0
-275 0 -276 20 -258 19 17 20 31 20 277 l0 258 290 0 290 0 0 -405 0 -405 -79
0 -80 0 -16 -57 c-10 -32 -19 -73 -22 -91 -7 -40 -11 -43 -98 -58 -170 -31
-323 -10 -380 51 -30 32 -55 92 -55 134 0 18 -6 21 -38 21 l-38 0 -18 -87
c-27 -134 -18 -123 -97 -123 -80 0 -77 -6 -49 112 11 46 20 86 20 91 0 4 -19
7 -42 7 l-43 0 -67 -105 -68 -105 -60 0 -60 0 0 106 0 105 -32 -3 c-32 -3 -33
-4 -62 -105 l-29 -103 -74 0 c-66 0 -74 2 -69 18 14 44 56 186 56 189 0 2 -76
3 -168 3 l-169 0 -32 -105 -32 -105 -71 0 -70 0 6 28 c3 15 17 62 30 105 l24
77 -109 0 c-60 0 -109 -3 -109 -6 0 -4 20 -49 45 -102 25 -52 45 -96 45 -98 0
-2 -35 -4 -78 -4 l-77 0 -53 105 c-28 58 -56 105 -61 105 -8 0 -28 -58 -67
-192 -4 -15 -17 -18 -70 -18 -35 0 -64 4 -64 8 0 5 32 113 70 241 l70 232 0
269 0 270 290 0 290 0 0 -235z"/>
<path d="M880 2274 l0 -224 60 0 c33 0 60 -4 60 -9 0 -8 -14 -55 -56 -191 -2
-8 41 33 97 93 l101 107 91 0 92 0 -137 -137 c-172 -173 -172 -173 7 -173 69
0 125 1 125 3 0 2 18 64 40 137 l40 133 0 243 0 243 -260 0 -260 0 0 -225z"/>
<path d="M1500 2276 l0 -224 120 -4 c113 -3 121 -4 145 -29 55 -55 37 -178
-36 -243 l-40 -37 57 3 58 3 22 80 c12 44 31 113 43 153 l22 72 64 0 65 0 0
225 0 225 -260 0 -260 0 0 -224z"/>
<path d="M2120 2117 c1 -363 2 -381 18 -360 9 12 55 82 102 157 l85 135 116 1
116 0 -27 -130 c-16 -72 -31 -142 -34 -155 -6 -23 -4 -25 33 -25 37 0 39 2 45
38 3 21 19 65 36 98 l30 59 0 283 0 283 -260 -1 -260 -1 0 -382z"/>
<path d="M2740 2264 c0 -221 1 -236 18 -229 103 45 236 59 326 34 68 -19 108
-78 98 -146 -3 -22 -8 -23 -88 -23 -77 0 -84 2 -84 19 0 45 -77 65 -144 37
-42 -17 -91 -77 -111 -135 -26 -78 -24 -82 47 -79 l61 3 11 40 12 40 134 0
c84 0 134 -4 134 -10 -1 -5 -5 -25 -9 -42 l-7 -33 61 0 61 0 0 379 0 380 -260
1 -260 0 0 -236z"/>
<path d="M1512 1908 c-7 -29 -15 -64 -19 -77 -6 -24 -6 -24 53 -18 68 7 99 33
110 93 8 46 -3 54 -76 54 l-55 0 -13 -52z"/>
<path d="M2330 1827 c-25 -39 -46 -75 -48 -79 -2 -4 12 -8 31 -8 l34 0 17 76
c9 42 15 78 14 80 -2 1 -24 -30 -48 -69z"/>
<path d="M1986 1878 c-3 -7 -11 -35 -20 -62 -22 -67 -20 -76 9 -76 26 0 26 1
23 75 -3 75 -5 86 -12 63z"/>
<path d="M2740 1689 c0 -54 53 -89 137 -89 62 0 70 6 87 63 l14 47 -119 0
c-114 0 -119 -1 -119 -21z"/>
</g>
</svg>
