<?xml version="1.0" standalone="no"?>
<!DOCTYPE svg PUBLIC "-//W3C//DTD SVG 20010904//EN"
 "http://www.w3.org/TR/2001/REC-SVG-20010904/DTD/svg10.dtd">
<svg version="1.0" xmlns="http://www.w3.org/2000/svg"
 width="800.000000pt" height="800.000000pt" viewBox="0 0 800.000000 800.000000"
 preserveAspectRatio="xMidYMid meet">

<g transform="translate(0.000000,800.000000) scale(0.100000,-0.100000)"
fill="#000000" stroke="none">
<path d="M2850 6074 c-211 -58 -391 -312 -466 -659 -30 -140 -21 -446 21 -690
13 -72 51 -215 69 -256 5 -12 -8 -22 -58 -43 -85 -36 -225 -119 -323 -192
-105 -77 -317 -292 -374 -379 -132 -199 -181 -392 -128 -502 54 -112 188 -164
609 -238 325 -57 461 -99 558 -173 24 -18 45 -32 46 -30 1 2 8 23 15 48 55
191 272 419 514 540 45 23 82 42 84 43 1 2 -6 31 -17 65 -42 133 -67 429 -47
558 l7 51 -73 0 c-57 0 -85 5 -127 25 -105 49 -105 44 7 128 112 83 268 232
353 335 336 409 444 936 231 1127 -65 60 -144 73 -218 37 -149 -72 -338 -390
-534 -899 -27 -69 -48 -122 -49 -118 0 4 13 63 30 131 125 530 149 920 62
1036 -47 64 -103 80 -192 55z m-408 -1893 c28 -25 33 -36 33 -76 0 -40 -5 -51
-33 -76 -25 -23 -42 -29 -76 -29 -38 0 -48 5 -75 35 -44 50 -43 95 3 141 46
46 101 48 148 5z"/>
<path d="M3970 4455 c-126 -27 -125 -26 -128 -76 -5 -83 -33 -264 -62 -398
-17 -74 -29 -136 -27 -137 2 -2 16 32 31 74 51 135 181 394 239 475 63 87 64
86 -53 62z"/>
<path d="M4310 4466 c0 -3 10 -22 22 -42 33 -56 37 -193 9 -305 -25 -101 -93
-245 -157 -335 -68 -95 -190 -221 -277 -284 -42 -30 -75 -59 -73 -65 1 -5 22
-20 46 -33 65 -34 141 -27 240 23 198 100 363 142 516 131 360 -25 631 -221
818 -593 50 -101 124 -312 152 -438 10 -44 19 -82 21 -84 2 -3 13 5 26 17 99
93 290 83 383 -20 58 -65 77 -120 72 -211 l-5 -78 26 6 c89 21 196 104 247
191 103 176 49 423 -118 537 -81 56 -130 70 -238 71 -86 1 -101 -2 -160 -30
-36 -17 -82 -45 -102 -63 -41 -36 -48 -38 -48 -13 0 33 -70 295 -114 428 -80
238 -202 479 -331 652 -117 157 -318 328 -483 411 -89 45 -250 97 -357 115
-95 17 -115 19 -115 12z"/>
<path d="M3370 3300 c-42 -42 -13 -112 47 -112 31 0 63 33 63 66 0 28 -39 66
-68 66 -12 0 -31 -9 -42 -20z"/>
<path d="M2862 2653 c-19 -119 -68 -185 -193 -257 -107 -61 -148 -134 -135
-239 13 -98 76 -181 172 -224 36 -17 97 -18 839 -21 439 -1 796 0 793 3 -3 4
-190 15 -415 26 -466 22 -456 20 -461 101 -4 59 22 91 105 130 35 17 72 43 82
57 28 39 44 110 37 161 -18 128 -128 186 -466 245 -155 27 -275 57 -319 79
l-27 14 -12 -75z"/>
</g>
</svg>
